<?xml version="1.0" encoding="UTF-8"?>
<!DOCTYPE svg PUBLIC "-//W3C//DTD SVG 1.1//EN" "http://www.w3.org/Graphics/SVG/1.1/DTD/svg11.dtd">
<svg xmlns="http://www.w3.org/2000/svg" xml:space="preserve" width="75.2632mm" height="75.0002mm" version="1.1" style="shape-rendering:geometricPrecision; text-rendering:geometricPrecision; image-rendering:optimizeQuality; fill-rule:evenodd; clip-rule:evenodd" viewBox="0 0 478.55 476.88" xmlns:xlink="http://www.w3.org/1999/xlink">
	<g id="Layer_x0020_1">
		<metadata id="Layer"/>
		<path fill="#FEFEFE" d="M188.51 103.45l10.36 18.7 -14.48 18.37 12.57 19.64 22.88 -5.12 10.97 17.7c-3.74,8.61 -9.74,11.31 -13.75,19.95l11.66 18.58 23.56 -4.37c18.3,23.92 82.74,129.95 103.33,162.62l-8.03 18.56 12.14 20.27c11.14,-2.09 19.89,-11.5 24.46,-3.42 5,8.85 19.63,23.39 13.22,29.28l-13.17 12.07 13.15 19.95c10.59,-0.81 19.59,-6.51 28.1,-4.83 6.55,3.09 10.83,11.1 19.3,15.19 63.72,-29.73 21.17,-68.44 2.51,-145.05 -8.6,-35.26 -17.68,-91.48 -13.2,-127.16 3.15,-20.66 -2.47,-28.97 -12.04,-35.64 -12.71,-8.86 -43.69,-22.52 -59.07,-50.6 -29.57,-54.02 -4.07,-70.97 -16.99,-85.19 -14.04,-15.47 -60.98,-15.23 -92.47,1.74 -20.36,10.97 -58.12,52.09 -64.99,68.76l-0.01 -0.01zm-17.43 349.79l1.2 -21.34 22.05 -7.81 -0.16 -23.32 -22.08 -7.87 0.16 -20.82c7.75,-5.28 14.28,-4.37 22.27,-9.55l0.04 -21.92 -22.27 -8.87c-2.72,-29.99 -0.7,-154.06 -0.7,-192.67l16.69 -11.42 0.54 -23.62c-10.54,-4.16 -22.96,-0.88 -22.52,-10.15 0.49,-10.15 -4.13,-30.26 4.43,-31.82l17.57 -3.19 -0.48 -23.89c-9.39,-4.95 -20.05,-4.94 -26.35,-10.9 -3.9,-6.1 -3.24,-15.16 -8.24,-23.15 -69.76,-8.83 -54.39,46.61 -79.47,121.37 -11.54,34.44 -33.82,86.8 -56.63,114.63 -13.69,15.79 -13.35,25.83 -8.82,36.57 6.03,14.27 24.96,42.35 22.98,74.31 -3.79,61.47 -34.4,62.21 -31.05,81.12 3.63,20.58 43.47,45.4 79.15,47.83 23.07,1.56 76.95,-13.08 91.65,-23.52l0.02 0z"/>
	</g>
</svg>
